<svg width="135" height="39" viewBox="0 0 135 39" fill="none" xmlns="http://www.w3.org/2000/svg">
<path fill-rule="evenodd" clip-rule="evenodd" d="M0 11.5613V11.6598L22.9595 22.2215L46 11.6238V11.5972L22.9595 1L0 11.5613ZM8.27726 11.6108L22.96 4.85679L37.6442 11.6108L22.9595 18.3642L8.27726 11.6108ZM22.9595 26.3237L0 15.9201V19.768L22.9595 30.1954L46 19.7326V15.8842L22.9595 26.3237ZM22.9595 34.1278L0 23.7233V27.5712L22.9595 38L46 27.5358V23.6878L22.9595 34.1278Z" fill="white"/>
<path fill-rule="evenodd" clip-rule="evenodd" d="M129.811 19.482C129.811 18.5937 129.655 17.7655 129.342 16.9972C129.03 16.229 128.604 15.5568 128.063 14.9806C127.523 14.4044 126.892 13.9543 126.171 13.6302C125.45 13.3061 124.682 13.144 123.865 13.144C123.048 13.144 122.279 13.3061 121.559 13.6302C120.838 13.9543 120.207 14.4044 119.667 14.9806C119.126 15.5568 118.7 16.229 118.387 16.9972C118.075 17.7655 117.919 18.5937 117.919 19.482C117.919 20.3703 118.075 21.1985 118.387 21.9667C118.7 22.735 119.126 23.4072 119.667 23.9834C120.207 24.5596 120.838 25.0097 121.559 25.3338C122.279 25.6579 123.048 25.8199 123.865 25.8199C124.682 25.8199 125.45 25.6579 126.171 25.3338C126.892 25.0097 127.523 24.5596 128.063 23.9834C128.604 23.4072 129.03 22.735 129.342 21.9667C129.655 21.1985 129.811 20.3703 129.811 19.482ZM135 19.482C135 21.0425 134.712 22.4889 134.135 23.8213C133.559 25.1537 132.766 26.3061 131.757 27.2784C130.748 28.2507 129.565 29.0189 128.207 29.5831C126.85 30.1473 125.402 30.4294 123.865 30.4294C122.327 30.4294 120.886 30.1473 119.541 29.5831C118.195 29.0189 117.018 28.2447 116.009 27.2604C115 26.2761 114.207 25.1177 113.631 23.7853C113.054 22.4529 112.766 21.0185 112.766 19.482C112.766 17.9696 113.06 16.5471 113.649 15.2147C114.237 13.8823 115.036 12.7179 116.045 11.7216C117.054 10.7253 118.231 9.94507 119.577 9.38087C120.922 8.81672 122.351 8.53462 123.865 8.53462C125.402 8.53462 126.85 8.81672 128.207 9.38087C129.565 9.94507 130.748 10.7133 131.757 11.6856C132.766 12.6579 133.559 13.8162 134.135 15.1606C134.712 16.5051 135 17.9455 135 19.482ZM110.964 29.7811C110.556 29.9732 110.093 30.1293 109.577 30.2493C109.06 30.3694 108.526 30.4294 107.973 30.4294C107.204 30.4294 106.465 30.3273 105.757 30.1233C105.048 29.9192 104.429 29.5891 103.901 29.133C103.372 28.6769 102.952 28.0826 102.64 27.3504C102.327 26.6182 102.171 25.7359 102.171 24.7036V0H107.468V23.8033C107.468 24.6676 107.643 25.2618 107.991 25.5859C108.339 25.91 108.754 26.072 109.234 26.072C109.835 26.072 110.411 25.892 110.964 25.5319V29.7812V29.7811ZM99.8288 9.03878L90.4594 33.7784C89.7628 35.627 88.8498 36.9594 87.7207 37.7756C86.5916 38.5919 85.2462 39 83.6847 39C83.4445 39 83.1802 38.982 82.8919 38.946C82.6036 38.91 82.3273 38.856 82.0631 38.784L80.3333 33.9585C80.7417 34.1506 81.1622 34.3005 81.5946 34.4086C82.027 34.5166 82.4354 34.5706 82.8198 34.5706C83.6366 34.5706 84.3814 34.3846 85.054 34.0125C85.7267 33.6404 86.2432 32.9502 86.6036 31.9418L87.3243 29.8532L79.2883 9.03878H84.946L89.7387 22.4349L94.2432 9.03878H99.8288ZM78.027 5.90582H64.4775V12.6039H77.8468V17.1413H64.4775V29.8892H59V1.11632H78.027V5.90582Z" fill="white"/>
</svg>
