<svg width="166" height="49" viewBox="0 0 166 49" fill="none" xmlns="http://www.w3.org/2000/svg">
<g id="Group 5">
<path id="Fill 1" fill-rule="evenodd" clip-rule="evenodd" d="M0 14.1302V14.2527L27.9508 27.3835L56 14.208V14.1749L27.9508 1L0 14.1302ZM10.0767 14.1917L27.9513 5.79493L45.8277 14.1917L27.9508 22.588L10.0767 14.1917ZM27.9508 32.4835L0 19.5493V24.3333L27.9508 37.297L56 24.2891V19.5047L27.9508 32.4835ZM27.9508 42.1859L0 29.2506V34.0345L27.9508 47L56 33.9904V29.2065L27.9508 42.1859Z" fill="#BDBAFA"/>
<g id="Group 4">
<mask id="mask0_0_228" style="mask-type:luminance" maskUnits="userSpaceOnUse" x="72" y="0" width="94" height="49">
<path id="Clip 3" fill-rule="evenodd" clip-rule="evenodd" d="M72.014 0.0295143H165.975V48.3194H72.014V0.0295143Z" fill="white"/>
</mask>
<g mask="url(#mask0_0_228)">
<path id="Fill 2" fill-rule="evenodd" clip-rule="evenodd" d="M159.559 24.1522C159.559 23.0523 159.366 22.0268 158.98 21.0755C158.594 20.1243 158.067 19.292 157.399 18.5786C156.73 17.8651 155.951 17.3078 155.06 16.9065C154.169 16.5052 153.218 16.3045 152.208 16.3045C151.198 16.3045 150.248 16.5052 149.357 16.9065C148.466 17.3078 147.686 17.8651 147.018 18.5786C146.35 19.292 145.822 20.1243 145.436 21.0755C145.05 22.0268 144.857 23.0523 144.857 24.1522C144.857 25.2521 145.05 26.2776 145.436 27.2289C145.822 28.18 146.35 29.0124 147.018 29.7258C147.686 30.4392 148.466 30.9966 149.357 31.3979C150.248 31.7992 151.198 31.9998 152.208 31.9998C153.218 31.9998 154.169 31.7992 155.06 31.3979C155.951 30.9966 156.73 30.4392 157.399 29.7258C158.067 29.0124 158.594 28.18 158.98 27.2289C159.366 26.2776 159.559 25.2521 159.559 24.1522ZM165.975 24.1522C165.975 26.0843 165.618 27.8753 164.906 29.5251C164.193 31.175 163.213 32.6019 161.965 33.8057C160.718 35.0096 159.255 35.9609 157.577 36.6594C155.899 37.358 154.109 37.7072 152.208 37.7072C150.307 37.7072 148.525 37.358 146.862 36.6594C145.199 35.9609 143.743 35.0022 142.496 33.7834C141.248 32.5647 140.268 31.1303 139.555 29.4805C138.843 27.8307 138.486 26.0547 138.486 24.1522C138.486 22.2794 138.85 20.5182 139.578 18.8684C140.305 17.2186 141.293 15.7769 142.54 14.5433C143.788 13.3096 145.243 12.3435 146.907 11.645C148.57 10.9464 150.337 10.5971 152.208 10.5971C154.109 10.5971 155.899 10.9464 157.577 11.645C159.255 12.3435 160.718 13.2947 161.965 14.4987C163.213 15.7026 164.193 17.1368 164.906 18.8015C165.618 20.4662 165.975 22.2497 165.975 24.1522ZM136.258 36.9047C135.754 37.1425 135.182 37.3356 134.543 37.4843C133.905 37.6329 133.244 37.7072 132.561 37.7072C131.61 37.7072 130.697 37.5809 129.821 37.3283C128.945 37.0755 128.18 36.6669 127.526 36.102C126.873 35.5372 126.353 34.8016 125.967 33.8949C125.581 32.9882 125.388 31.8958 125.388 30.6176V0.0294876H131.937V29.5028C131.937 30.573 132.152 31.3088 132.583 31.71C133.014 32.1113 133.526 32.312 134.12 32.312C134.862 32.312 135.575 32.089 136.258 31.6432V36.9047ZM122.492 11.2214L110.908 41.854C110.047 44.1429 108.918 45.7928 107.522 46.8034C106.126 47.8141 104.463 48.3195 102.532 48.3195C102.235 48.3195 101.909 48.2971 101.552 48.2525C101.196 48.208 100.854 48.141 100.527 48.0519L98.389 42.077C98.8939 42.3148 99.4137 42.5006 99.9483 42.6344C100.483 42.7681 100.988 42.835 101.463 42.835C102.473 42.835 103.394 42.6046 104.225 42.1438C105.057 41.6831 105.696 40.8285 106.141 39.58L107.032 36.9938L97.097 11.2214H104.092L110.017 27.8085L115.586 11.2213H122.492V11.2214ZM95.5376 7.34214H78.7859V15.6357H95.3149V21.2539H78.7859V37.0385H72.014V1.41177H95.5376V7.34214Z" fill="black"/>
</g>
</g>
</g>
</svg>
